<?xml version="1.0" encoding="UTF-8" ?>
<svg version="1.1" width="40" height="23" xmlns="http://www.w3.org/2000/svg" shape-rendering="crispEdges">
<rect x="1" y="0" width="1" height="1" fill="#2E8CE4" />
<rect x="2" y="0" width="1" height="1" fill="#2E8CE4" />
<rect x="3" y="0" width="1" height="1" fill="#2E8CE4" />
<rect x="4" y="0" width="1" height="1" fill="#2E8CE4" />
<rect x="5" y="0" width="1" height="1" fill="#2E8CE4" />
<rect x="6" y="0" width="1" height="1" fill="#2E8CE4" />
<rect x="10" y="0" width="1" height="1" fill="#28ED93" />
<rect x="26" y="0" width="1" height="1" fill="#A467F3" />
<rect x="27" y="0" width="1" height="1" fill="#A467F3" />
<rect x="28" y="0" width="1" height="1" fill="#A467F3" />
<rect x="29" y="0" width="1" height="1" fill="#A467F3" />
<rect x="30" y="0" width="1" height="1" fill="#A467F3" />
<rect x="31" y="0" width="1" height="1" fill="#A467F3" />
<rect x="32" y="0" width="1" height="1" fill="#A467F3" />
<rect x="33" y="0" width="1" height="1" fill="#A467F3" />
<rect x="34" y="0" width="1" height="1" fill="#A467F3" />
<rect x="0" y="1" width="1" height="1" fill="#2E8CE4" />
<rect x="1" y="1" width="1" height="1" fill="#2E8CE4" />
<rect x="2" y="1" width="1" height="1" fill="#2E8CE4" />
<rect x="3" y="1" width="1" height="1" fill="#2E8CE4" />
<rect x="4" y="1" width="1" height="1" fill="#2E8CE4" />
<rect x="5" y="1" width="1" height="1" fill="#2E8CE4" />
<rect x="6" y="1" width="1" height="1" fill="#2E8CE4" />
<rect x="7" y="1" width="1" height="1" fill="#2E8CE4" />
<rect x="9" y="1" width="1" height="1" fill="#28ED93" />
<rect x="10" y="1" width="1" height="1" fill="#28ED93" />
<rect x="11" y="1" width="1" height="1" fill="#28ED93" />
<rect x="25" y="1" width="1" height="1" fill="#A467F3" />
<rect x="26" y="1" width="1" height="1" fill="#A467F3" />
<rect x="27" y="1" width="1" height="1" fill="#A467F3" />
<rect x="28" y="1" width="1" height="1" fill="#A467F3" />
<rect x="29" y="1" width="1" height="1" fill="#A467F3" />
<rect x="30" y="1" width="1" height="1" fill="#A467F3" />
<rect x="31" y="1" width="1" height="1" fill="#A467F3" />
<rect x="32" y="1" width="1" height="1" fill="#A467F3" />
<rect x="33" y="1" width="1" height="1" fill="#A467F3" />
<rect x="34" y="1" width="1" height="1" fill="#A467F3" />
<rect x="35" y="1" width="1" height="1" fill="#A467F3" />
<rect x="1" y="2" width="1" height="1" fill="#2E8CE4" />
<rect x="2" y="2" width="1" height="1" fill="#2E8CE4" />
<rect x="3" y="2" width="1" height="1" fill="#2E8CE4" />
<rect x="4" y="2" width="1" height="1" fill="#2E8CE4" />
<rect x="5" y="2" width="1" height="1" fill="#2E8CE4" />
<rect x="6" y="2" width="1" height="1" fill="#2E8CE4" />
<rect x="10" y="2" width="1" height="1" fill="#28ED93" />
<rect x="26" y="2" width="1" height="1" fill="#A467F3" />
<rect x="27" y="2" width="1" height="1" fill="#A467F3" />
<rect x="28" y="2" width="1" height="1" fill="#A467F3" />
<rect x="29" y="2" width="1" height="1" fill="#A467F3" />
<rect x="30" y="2" width="1" height="1" fill="#A467F3" />
<rect x="31" y="2" width="1" height="1" fill="#A467F3" />
<rect x="32" y="2" width="1" height="1" fill="#A467F3" />
<rect x="33" y="2" width="1" height="1" fill="#A467F3" />
<rect x="34" y="2" width="1" height="1" fill="#A467F3" />
<rect x="1" y="4" width="1" height="1" fill="#D95763" />
<rect x="2" y="4" width="1" height="1" fill="#D95763" />
<rect x="12" y="4" width="1" height="1" fill="#A467F3" />
<rect x="13" y="4" width="1" height="1" fill="#A467F3" />
<rect x="21" y="4" width="1" height="1" fill="#2E8CE4" />
<rect x="22" y="4" width="1" height="1" fill="#2E8CE4" />
<rect x="23" y="4" width="1" height="1" fill="#2E8CE4" />
<rect x="24" y="4" width="1" height="1" fill="#2E8CE4" />
<rect x="0" y="5" width="1" height="1" fill="#D95763" />
<rect x="1" y="5" width="1" height="1" fill="#D95763" />
<rect x="2" y="5" width="1" height="1" fill="#D95763" />
<rect x="3" y="5" width="1" height="1" fill="#D95763" />
<rect x="11" y="5" width="1" height="1" fill="#A467F3" />
<rect x="12" y="5" width="1" height="1" fill="#A467F3" />
<rect x="13" y="5" width="1" height="1" fill="#A467F3" />
<rect x="14" y="5" width="1" height="1" fill="#A467F3" />
<rect x="20" y="5" width="1" height="1" fill="#2E8CE4" />
<rect x="21" y="5" width="1" height="1" fill="#2E8CE4" />
<rect x="22" y="5" width="1" height="1" fill="#2E8CE4" />
<rect x="23" y="5" width="1" height="1" fill="#2E8CE4" />
<rect x="24" y="5" width="1" height="1" fill="#2E8CE4" />
<rect x="25" y="5" width="1" height="1" fill="#2E8CE4" />
<rect x="1" y="6" width="1" height="1" fill="#D95763" />
<rect x="2" y="6" width="1" height="1" fill="#D95763" />
<rect x="12" y="6" width="1" height="1" fill="#A467F3" />
<rect x="13" y="6" width="1" height="1" fill="#A467F3" />
<rect x="21" y="6" width="1" height="1" fill="#2E8CE4" />
<rect x="22" y="6" width="1" height="1" fill="#2E8CE4" />
<rect x="23" y="6" width="1" height="1" fill="#2E8CE4" />
<rect x="24" y="6" width="1" height="1" fill="#2E8CE4" />
<rect x="1" y="8" width="1" height="1" fill="#A467F3" />
<rect x="2" y="8" width="1" height="1" fill="#A467F3" />
<rect x="3" y="8" width="1" height="1" fill="#A467F3" />
<rect x="4" y="8" width="1" height="1" fill="#A467F3" />
<rect x="12" y="8" width="1" height="1" fill="#D95763" />
<rect x="13" y="8" width="1" height="1" fill="#D95763" />
<rect x="21" y="8" width="1" height="1" fill="#28ED93" />
<rect x="22" y="8" width="1" height="1" fill="#28ED93" />
<rect x="0" y="9" width="1" height="1" fill="#A467F3" />
<rect x="1" y="9" width="1" height="1" fill="#A467F3" />
<rect x="2" y="9" width="1" height="1" fill="#A467F3" />
<rect x="3" y="9" width="1" height="1" fill="#A467F3" />
<rect x="4" y="9" width="1" height="1" fill="#A467F3" />
<rect x="5" y="9" width="1" height="1" fill="#A467F3" />
<rect x="11" y="9" width="1" height="1" fill="#D95763" />
<rect x="12" y="9" width="1" height="1" fill="#D95763" />
<rect x="13" y="9" width="1" height="1" fill="#D95763" />
<rect x="14" y="9" width="1" height="1" fill="#D95763" />
<rect x="20" y="9" width="1" height="1" fill="#28ED93" />
<rect x="21" y="9" width="1" height="1" fill="#28ED93" />
<rect x="22" y="9" width="1" height="1" fill="#28ED93" />
<rect x="23" y="9" width="1" height="1" fill="#28ED93" />
<rect x="1" y="10" width="1" height="1" fill="#A467F3" />
<rect x="2" y="10" width="1" height="1" fill="#A467F3" />
<rect x="3" y="10" width="1" height="1" fill="#A467F3" />
<rect x="4" y="10" width="1" height="1" fill="#A467F3" />
<rect x="12" y="10" width="1" height="1" fill="#D95763" />
<rect x="13" y="10" width="1" height="1" fill="#D95763" />
<rect x="21" y="10" width="1" height="1" fill="#28ED93" />
<rect x="22" y="10" width="1" height="1" fill="#28ED93" />
<rect x="1" y="12" width="1" height="1" fill="#A467F3" />
<rect x="2" y="12" width="1" height="1" fill="#A467F3" />
<rect x="12" y="12" width="1" height="1" fill="#2E8CE4" />
<rect x="13" y="12" width="1" height="1" fill="#2E8CE4" />
<rect x="14" y="12" width="1" height="1" fill="#2E8CE4" />
<rect x="15" y="12" width="1" height="1" fill="#2E8CE4" />
<rect x="21" y="12" width="1" height="1" fill="#D95763" />
<rect x="22" y="12" width="1" height="1" fill="#D95763" />
<rect x="0" y="13" width="1" height="1" fill="#A467F3" />
<rect x="1" y="13" width="1" height="1" fill="#A467F3" />
<rect x="2" y="13" width="1" height="1" fill="#A467F3" />
<rect x="3" y="13" width="1" height="1" fill="#A467F3" />
<rect x="11" y="13" width="1" height="1" fill="#2E8CE4" />
<rect x="12" y="13" width="1" height="1" fill="#2E8CE4" />
<rect x="13" y="13" width="1" height="1" fill="#2E8CE4" />
<rect x="14" y="13" width="1" height="1" fill="#2E8CE4" />
<rect x="15" y="13" width="1" height="1" fill="#2E8CE4" />
<rect x="16" y="13" width="1" height="1" fill="#2E8CE4" />
<rect x="20" y="13" width="1" height="1" fill="#D95763" />
<rect x="21" y="13" width="1" height="1" fill="#D95763" />
<rect x="22" y="13" width="1" height="1" fill="#D95763" />
<rect x="23" y="13" width="1" height="1" fill="#D95763" />
<rect x="32" y="13" width="1" height="1" fill="#D95763" />
<rect x="33" y="13" width="1" height="1" fill="#D95763" />
<rect x="37" y="13" width="1" height="1" fill="#A467F3" />
<rect x="38" y="13" width="1" height="1" fill="#A467F3" />
<rect x="1" y="14" width="1" height="1" fill="#A467F3" />
<rect x="2" y="14" width="1" height="1" fill="#A467F3" />
<rect x="12" y="14" width="1" height="1" fill="#2E8CE4" />
<rect x="13" y="14" width="1" height="1" fill="#2E8CE4" />
<rect x="14" y="14" width="1" height="1" fill="#2E8CE4" />
<rect x="15" y="14" width="1" height="1" fill="#2E8CE4" />
<rect x="21" y="14" width="1" height="1" fill="#D95763" />
<rect x="22" y="14" width="1" height="1" fill="#D95763" />
<rect x="31" y="14" width="1" height="1" fill="#D95763" />
<rect x="32" y="14" width="1" height="1" fill="#D95763" />
<rect x="33" y="14" width="1" height="1" fill="#D95763" />
<rect x="34" y="14" width="1" height="1" fill="#D95763" />
<rect x="36" y="14" width="1" height="1" fill="#A467F3" />
<rect x="37" y="14" width="1" height="1" fill="#A467F3" />
<rect x="38" y="14" width="1" height="1" fill="#A467F3" />
<rect x="39" y="14" width="1" height="1" fill="#A467F3" />
<rect x="32" y="15" width="1" height="1" fill="#D95763" />
<rect x="33" y="15" width="1" height="1" fill="#D95763" />
<rect x="37" y="15" width="1" height="1" fill="#A467F3" />
<rect x="38" y="15" width="1" height="1" fill="#A467F3" />
<rect x="1" y="16" width="1" height="1" fill="#28ED93" />
<rect x="2" y="16" width="1" height="1" fill="#28ED93" />
<rect x="12" y="16" width="1" height="1" fill="#28ED93" />
<rect x="13" y="16" width="1" height="1" fill="#28ED93" />
<rect x="21" y="16" width="1" height="1" fill="#28ED93" />
<rect x="22" y="16" width="1" height="1" fill="#28ED93" />
<rect x="23" y="16" width="1" height="1" fill="#28ED93" />
<rect x="24" y="16" width="1" height="1" fill="#28ED93" />
<rect x="0" y="17" width="1" height="1" fill="#28ED93" />
<rect x="1" y="17" width="1" height="1" fill="#28ED93" />
<rect x="2" y="17" width="1" height="1" fill="#28ED93" />
<rect x="3" y="17" width="1" height="1" fill="#28ED93" />
<rect x="11" y="17" width="1" height="1" fill="#28ED93" />
<rect x="12" y="17" width="1" height="1" fill="#28ED93" />
<rect x="13" y="17" width="1" height="1" fill="#28ED93" />
<rect x="14" y="17" width="1" height="1" fill="#28ED93" />
<rect x="20" y="17" width="1" height="1" fill="#28ED93" />
<rect x="21" y="17" width="1" height="1" fill="#28ED93" />
<rect x="22" y="17" width="1" height="1" fill="#28ED93" />
<rect x="23" y="17" width="1" height="1" fill="#28ED93" />
<rect x="24" y="17" width="1" height="1" fill="#28ED93" />
<rect x="25" y="17" width="1" height="1" fill="#28ED93" />
<rect x="37" y="17" width="1" height="1" fill="#2E8CE4" />
<rect x="38" y="17" width="1" height="1" fill="#2E8CE4" />
<rect x="1" y="18" width="1" height="1" fill="#28ED93" />
<rect x="2" y="18" width="1" height="1" fill="#28ED93" />
<rect x="12" y="18" width="1" height="1" fill="#28ED93" />
<rect x="13" y="18" width="1" height="1" fill="#28ED93" />
<rect x="21" y="18" width="1" height="1" fill="#28ED93" />
<rect x="22" y="18" width="1" height="1" fill="#28ED93" />
<rect x="23" y="18" width="1" height="1" fill="#28ED93" />
<rect x="24" y="18" width="1" height="1" fill="#28ED93" />
<rect x="36" y="18" width="1" height="1" fill="#2E8CE4" />
<rect x="37" y="18" width="1" height="1" fill="#2E8CE4" />
<rect x="38" y="18" width="1" height="1" fill="#2E8CE4" />
<rect x="39" y="18" width="1" height="1" fill="#2E8CE4" />
<rect x="37" y="19" width="1" height="1" fill="#2E8CE4" />
<rect x="38" y="19" width="1" height="1" fill="#2E8CE4" />
<rect x="1" y="20" width="1" height="1" fill="#2E8CE4" />
<rect x="2" y="20" width="1" height="1" fill="#2E8CE4" />
<rect x="3" y="20" width="1" height="1" fill="#2E8CE4" />
<rect x="4" y="20" width="1" height="1" fill="#2E8CE4" />
<rect x="5" y="20" width="1" height="1" fill="#2E8CE4" />
<rect x="6" y="20" width="1" height="1" fill="#2E8CE4" />
<rect x="10" y="20" width="1" height="1" fill="#D95763" />
<rect x="24" y="20" width="1" height="1" fill="#A467F3" />
<rect x="25" y="20" width="1" height="1" fill="#A467F3" />
<rect x="26" y="20" width="1" height="1" fill="#A467F3" />
<rect x="27" y="20" width="1" height="1" fill="#A467F3" />
<rect x="28" y="20" width="1" height="1" fill="#A467F3" />
<rect x="29" y="20" width="1" height="1" fill="#A467F3" />
<rect x="33" y="20" width="1" height="1" fill="#D95763" />
<rect x="34" y="20" width="1" height="1" fill="#D95763" />
<rect x="0" y="21" width="1" height="1" fill="#2E8CE4" />
<rect x="1" y="21" width="1" height="1" fill="#2E8CE4" />
<rect x="2" y="21" width="1" height="1" fill="#2E8CE4" />
<rect x="3" y="21" width="1" height="1" fill="#2E8CE4" />
<rect x="4" y="21" width="1" height="1" fill="#2E8CE4" />
<rect x="5" y="21" width="1" height="1" fill="#2E8CE4" />
<rect x="6" y="21" width="1" height="1" fill="#2E8CE4" />
<rect x="7" y="21" width="1" height="1" fill="#2E8CE4" />
<rect x="9" y="21" width="1" height="1" fill="#D95763" />
<rect x="10" y="21" width="1" height="1" fill="#D95763" />
<rect x="11" y="21" width="1" height="1" fill="#D95763" />
<rect x="23" y="21" width="1" height="1" fill="#A467F3" />
<rect x="24" y="21" width="1" height="1" fill="#A467F3" />
<rect x="25" y="21" width="1" height="1" fill="#A467F3" />
<rect x="26" y="21" width="1" height="1" fill="#A467F3" />
<rect x="27" y="21" width="1" height="1" fill="#A467F3" />
<rect x="28" y="21" width="1" height="1" fill="#A467F3" />
<rect x="29" y="21" width="1" height="1" fill="#A467F3" />
<rect x="30" y="21" width="1" height="1" fill="#A467F3" />
<rect x="32" y="21" width="1" height="1" fill="#D95763" />
<rect x="33" y="21" width="1" height="1" fill="#D95763" />
<rect x="34" y="21" width="1" height="1" fill="#D95763" />
<rect x="35" y="21" width="1" height="1" fill="#D95763" />
<rect x="1" y="22" width="1" height="1" fill="#2E8CE4" />
<rect x="2" y="22" width="1" height="1" fill="#2E8CE4" />
<rect x="3" y="22" width="1" height="1" fill="#2E8CE4" />
<rect x="4" y="22" width="1" height="1" fill="#2E8CE4" />
<rect x="5" y="22" width="1" height="1" fill="#2E8CE4" />
<rect x="6" y="22" width="1" height="1" fill="#2E8CE4" />
<rect x="10" y="22" width="1" height="1" fill="#D95763" />
<rect x="24" y="22" width="1" height="1" fill="#A467F3" />
<rect x="25" y="22" width="1" height="1" fill="#A467F3" />
<rect x="26" y="22" width="1" height="1" fill="#A467F3" />
<rect x="27" y="22" width="1" height="1" fill="#A467F3" />
<rect x="28" y="22" width="1" height="1" fill="#A467F3" />
<rect x="29" y="22" width="1" height="1" fill="#A467F3" />
<rect x="33" y="22" width="1" height="1" fill="#D95763" />
<rect x="34" y="22" width="1" height="1" fill="#D95763" />
</svg>