<?xml version="1.0" encoding="UTF-8" ?>
<svg version="1.1" width="25" height="25" xmlns="http://www.w3.org/2000/svg" shape-rendering="crispEdges">
<rect x="10" y="1" width="1" height="1" fill="#AC3232" />
<rect x="11" y="1" width="1" height="1" fill="#AC3232" />
<rect x="12" y="1" width="1" height="1" fill="#AC3232" />
<rect x="13" y="1" width="1" height="1" fill="#AC3232" />
<rect x="9" y="2" width="1" height="1" fill="#AC3232" />
<rect x="10" y="2" width="1" height="1" fill="#AC3232" />
<rect x="11" y="2" width="1" height="1" fill="#AC3232" />
<rect x="12" y="2" width="1" height="1" fill="#AC3232" />
<rect x="13" y="2" width="1" height="1" fill="#AC3232" />
<rect x="14" y="2" width="1" height="1" fill="#AC3232" />
<rect x="8" y="3" width="1" height="1" fill="#AC3232" />
<rect x="9" y="3" width="1" height="1" fill="#AC3232" />
<rect x="10" y="3" width="1" height="1" fill="#AC3232" />
<rect x="11" y="3" width="1" height="1" fill="#AC3232" />
<rect x="12" y="3" width="1" height="1" fill="#AC3232" />
<rect x="13" y="3" width="1" height="1" fill="#AC3232" />
<rect x="14" y="3" width="1" height="1" fill="#AC3232" />
<rect x="15" y="3" width="1" height="1" fill="#AC3232" />
<rect x="7" y="4" width="1" height="1" fill="#AC3232" />
<rect x="8" y="4" width="1" height="1" fill="#AC3232" />
<rect x="9" y="4" width="1" height="1" fill="#AC3232" />
<rect x="10" y="4" width="1" height="1" fill="#AC3232" />
<rect x="11" y="4" width="1" height="1" fill="#AC3232" />
<rect x="12" y="4" width="1" height="1" fill="#AC3232" />
<rect x="13" y="4" width="1" height="1" fill="#AC3232" />
<rect x="14" y="4" width="1" height="1" fill="#AC3232" />
<rect x="15" y="4" width="1" height="1" fill="#AC3232" />
<rect x="16" y="4" width="1" height="1" fill="#AC3232" />
<rect x="6" y="5" width="1" height="1" fill="#AC3232" />
<rect x="7" y="5" width="1" height="1" fill="#AC3232" />
<rect x="8" y="5" width="1" height="1" fill="#AC3232" />
<rect x="9" y="5" width="1" height="1" fill="#AC3232" />
<rect x="10" y="5" width="1" height="1" fill="#AC3232" />
<rect x="11" y="5" width="1" height="1" fill="#AC3232" />
<rect x="12" y="5" width="1" height="1" fill="#AC3232" />
<rect x="13" y="5" width="1" height="1" fill="#AC3232" />
<rect x="14" y="5" width="1" height="1" fill="#AC3232" />
<rect x="15" y="5" width="1" height="1" fill="#AC3232" />
<rect x="16" y="5" width="1" height="1" fill="#AC3232" />
<rect x="17" y="5" width="1" height="1" fill="#AC3232" />
<rect x="6" y="6" width="1" height="1" fill="#AC3232" />
<rect x="7" y="6" width="1" height="1" fill="#AC3232" />
<rect x="8" y="6" width="1" height="1" fill="#AC3232" />
<rect x="9" y="6" width="1" height="1" fill="#AC3232" />
<rect x="10" y="6" width="1" height="1" fill="#AC3232" />
<rect x="11" y="6" width="1" height="1" fill="#AC3232" />
<rect x="12" y="6" width="1" height="1" fill="#AC3232" />
<rect x="13" y="6" width="1" height="1" fill="#AC3232" />
<rect x="14" y="6" width="1" height="1" fill="#AC3232" />
<rect x="15" y="6" width="1" height="1" fill="#AC3232" />
<rect x="16" y="6" width="1" height="1" fill="#AC3232" />
<rect x="17" y="6" width="1" height="1" fill="#AC3232" />
<rect x="6" y="7" width="1" height="1" fill="#AC3232" />
<rect x="7" y="7" width="1" height="1" fill="#AC3232" />
<rect x="8" y="7" width="1" height="1" fill="#AC3232" />
<rect x="9" y="7" width="1" height="1" fill="#AC3232" />
<rect x="10" y="7" width="1" height="1" fill="#AC3232" />
<rect x="11" y="7" width="1" height="1" fill="#AC3232" />
<rect x="12" y="7" width="1" height="1" fill="#AC3232" />
<rect x="13" y="7" width="1" height="1" fill="#AC3232" />
<rect x="14" y="7" width="1" height="1" fill="#AC3232" />
<rect x="15" y="7" width="1" height="1" fill="#AC3232" />
<rect x="16" y="7" width="1" height="1" fill="#AC3232" />
<rect x="17" y="7" width="1" height="1" fill="#AC3232" />
<rect x="6" y="8" width="1" height="1" fill="#AC3232" />
<rect x="7" y="8" width="1" height="1" fill="#AC3232" />
<rect x="8" y="8" width="1" height="1" fill="#AC3232" />
<rect x="9" y="8" width="1" height="1" fill="#AC3232" />
<rect x="10" y="8" width="1" height="1" fill="#AC3232" />
<rect x="11" y="8" width="1" height="1" fill="#AC3232" />
<rect x="12" y="8" width="1" height="1" fill="#AC3232" />
<rect x="13" y="8" width="1" height="1" fill="#AC3232" />
<rect x="14" y="8" width="1" height="1" fill="#AC3232" />
<rect x="15" y="8" width="1" height="1" fill="#AC3232" />
<rect x="16" y="8" width="1" height="1" fill="#AC3232" />
<rect x="17" y="8" width="1" height="1" fill="#AC3232" />
<rect x="7" y="9" width="1" height="1" fill="#AC3232" />
<rect x="8" y="9" width="1" height="1" fill="#AC3232" />
<rect x="9" y="9" width="1" height="1" fill="#AC3232" />
<rect x="10" y="9" width="1" height="1" fill="#AC3232" />
<rect x="11" y="9" width="1" height="1" fill="#AC3232" />
<rect x="12" y="9" width="1" height="1" fill="#AC3232" />
<rect x="13" y="9" width="1" height="1" fill="#AC3232" />
<rect x="14" y="9" width="1" height="1" fill="#AC3232" />
<rect x="15" y="9" width="1" height="1" fill="#AC3232" />
<rect x="16" y="9" width="1" height="1" fill="#AC3232" />
<rect x="7" y="10" width="1" height="1" fill="#AC3232" />
<rect x="8" y="10" width="1" height="1" fill="#AC3232" />
<rect x="9" y="10" width="1" height="1" fill="#AC3232" />
<rect x="10" y="10" width="1" height="1" fill="#AC3232" />
<rect x="11" y="10" width="1" height="1" fill="#AC3232" />
<rect x="12" y="10" width="1" height="1" fill="#AC3232" />
<rect x="13" y="10" width="1" height="1" fill="#AC3232" />
<rect x="14" y="10" width="1" height="1" fill="#AC3232" />
<rect x="15" y="10" width="1" height="1" fill="#AC3232" />
<rect x="16" y="10" width="1" height="1" fill="#AC3232" />
<rect x="8" y="11" width="1" height="1" fill="#AC3232" />
<rect x="9" y="11" width="1" height="1" fill="#AC3232" />
<rect x="10" y="11" width="1" height="1" fill="#AC3232" />
<rect x="11" y="11" width="1" height="1" fill="#AC3232" />
<rect x="12" y="11" width="1" height="1" fill="#AC3232" />
<rect x="13" y="11" width="1" height="1" fill="#AC3232" />
<rect x="14" y="11" width="1" height="1" fill="#AC3232" />
<rect x="15" y="11" width="1" height="1" fill="#AC3232" />
<rect x="10" y="12" width="1" height="1" fill="#AC3232" />
<rect x="11" y="12" width="1" height="1" fill="#AC3232" />
<rect x="12" y="12" width="1" height="1" fill="#AC3232" />
<rect x="13" y="12" width="1" height="1" fill="#AC3232" />
<rect x="17" y="16" width="1" height="1" fill="#AC3232" />
<rect x="18" y="16" width="1" height="1" fill="#AC3232" />
<rect x="19" y="16" width="1" height="1" fill="#AC3232" />
<rect x="20" y="16" width="1" height="1" fill="#AC3232" />
<rect x="21" y="16" width="1" height="1" fill="#AC3232" />
<rect x="22" y="16" width="1" height="1" fill="#AC3232" />
<rect x="9" y="17" width="1" height="1" fill="#AC3232" />
<rect x="10" y="17" width="1" height="1" fill="#AC3232" />
<rect x="11" y="17" width="1" height="1" fill="#AC3232" />
<rect x="12" y="17" width="1" height="1" fill="#AC3232" />
<rect x="13" y="17" width="1" height="1" fill="#AC3232" />
<rect x="7" y="18" width="1" height="1" fill="#AC3232" />
<rect x="8" y="18" width="1" height="1" fill="#AC3232" />
<rect x="9" y="18" width="1" height="1" fill="#AC3232" />
<rect x="10" y="18" width="1" height="1" fill="#AC3232" />
<rect x="11" y="18" width="1" height="1" fill="#AC3232" />
<rect x="12" y="18" width="1" height="1" fill="#AC3232" />
<rect x="13" y="18" width="1" height="1" fill="#AC3232" />
<rect x="14" y="18" width="1" height="1" fill="#AC3232" />
<rect x="15" y="18" width="1" height="1" fill="#AC3232" />
<rect x="5" y="19" width="1" height="1" fill="#AC3232" />
<rect x="6" y="19" width="1" height="1" fill="#AC3232" />
<rect x="7" y="19" width="1" height="1" fill="#AC3232" />
<rect x="8" y="19" width="1" height="1" fill="#AC3232" />
<rect x="9" y="19" width="1" height="1" fill="#AC3232" />
<rect x="10" y="19" width="1" height="1" fill="#AC3232" />
<rect x="11" y="19" width="1" height="1" fill="#AC3232" />
<rect x="12" y="19" width="1" height="1" fill="#AC3232" />
<rect x="13" y="19" width="1" height="1" fill="#AC3232" />
<rect x="14" y="19" width="1" height="1" fill="#AC3232" />
<rect x="15" y="19" width="1" height="1" fill="#AC3232" />
<rect x="16" y="19" width="1" height="1" fill="#AC3232" />
<rect x="17" y="19" width="1" height="1" fill="#AC3232" />
<rect x="4" y="20" width="1" height="1" fill="#AC3232" />
<rect x="5" y="20" width="1" height="1" fill="#AC3232" />
<rect x="6" y="20" width="1" height="1" fill="#AC3232" />
<rect x="7" y="20" width="1" height="1" fill="#AC3232" />
<rect x="8" y="20" width="1" height="1" fill="#AC3232" />
<rect x="9" y="20" width="1" height="1" fill="#AC3232" />
<rect x="10" y="20" width="1" height="1" fill="#AC3232" />
<rect x="11" y="20" width="1" height="1" fill="#AC3232" />
<rect x="12" y="20" width="1" height="1" fill="#AC3232" />
<rect x="13" y="20" width="1" height="1" fill="#AC3232" />
<rect x="14" y="20" width="1" height="1" fill="#AC3232" />
<rect x="15" y="20" width="1" height="1" fill="#AC3232" />
<rect x="16" y="20" width="1" height="1" fill="#AC3232" />
<rect x="17" y="20" width="1" height="1" fill="#AC3232" />
<rect x="18" y="20" width="1" height="1" fill="#AC3232" />
<rect x="3" y="21" width="1" height="1" fill="#AC3232" />
<rect x="4" y="21" width="1" height="1" fill="#AC3232" />
<rect x="5" y="21" width="1" height="1" fill="#AC3232" />
<rect x="6" y="21" width="1" height="1" fill="#AC3232" />
<rect x="7" y="21" width="1" height="1" fill="#AC3232" />
<rect x="8" y="21" width="1" height="1" fill="#AC3232" />
<rect x="9" y="21" width="1" height="1" fill="#AC3232" />
<rect x="10" y="21" width="1" height="1" fill="#AC3232" />
<rect x="11" y="21" width="1" height="1" fill="#AC3232" />
<rect x="12" y="21" width="1" height="1" fill="#AC3232" />
<rect x="13" y="21" width="1" height="1" fill="#AC3232" />
<rect x="14" y="21" width="1" height="1" fill="#AC3232" />
<rect x="15" y="21" width="1" height="1" fill="#AC3232" />
<rect x="16" y="21" width="1" height="1" fill="#AC3232" />
<rect x="17" y="21" width="1" height="1" fill="#AC3232" />
<rect x="18" y="21" width="1" height="1" fill="#AC3232" />
<rect x="19" y="21" width="1" height="1" fill="#AC3232" />
<rect x="3" y="22" width="1" height="1" fill="#AC3232" />
<rect x="4" y="22" width="1" height="1" fill="#AC3232" />
<rect x="5" y="22" width="1" height="1" fill="#AC3232" />
<rect x="6" y="22" width="1" height="1" fill="#AC3232" />
<rect x="7" y="22" width="1" height="1" fill="#AC3232" />
<rect x="8" y="22" width="1" height="1" fill="#AC3232" />
<rect x="9" y="22" width="1" height="1" fill="#AC3232" />
<rect x="10" y="22" width="1" height="1" fill="#AC3232" />
<rect x="11" y="22" width="1" height="1" fill="#AC3232" />
<rect x="12" y="22" width="1" height="1" fill="#AC3232" />
<rect x="13" y="22" width="1" height="1" fill="#AC3232" />
<rect x="14" y="22" width="1" height="1" fill="#AC3232" />
<rect x="15" y="22" width="1" height="1" fill="#AC3232" />
<rect x="16" y="22" width="1" height="1" fill="#AC3232" />
<rect x="17" y="22" width="1" height="1" fill="#AC3232" />
<rect x="18" y="22" width="1" height="1" fill="#AC3232" />
<rect x="19" y="22" width="1" height="1" fill="#AC3232" />
<rect x="2" y="23" width="1" height="1" fill="#AC3232" />
<rect x="3" y="23" width="1" height="1" fill="#AC3232" />
<rect x="4" y="23" width="1" height="1" fill="#AC3232" />
<rect x="5" y="23" width="1" height="1" fill="#AC3232" />
<rect x="6" y="23" width="1" height="1" fill="#AC3232" />
<rect x="7" y="23" width="1" height="1" fill="#AC3232" />
<rect x="8" y="23" width="1" height="1" fill="#AC3232" />
<rect x="9" y="23" width="1" height="1" fill="#AC3232" />
<rect x="10" y="23" width="1" height="1" fill="#AC3232" />
<rect x="11" y="23" width="1" height="1" fill="#AC3232" />
<rect x="12" y="23" width="1" height="1" fill="#AC3232" />
<rect x="13" y="23" width="1" height="1" fill="#AC3232" />
<rect x="14" y="23" width="1" height="1" fill="#AC3232" />
<rect x="15" y="23" width="1" height="1" fill="#AC3232" />
<rect x="16" y="23" width="1" height="1" fill="#AC3232" />
<rect x="17" y="23" width="1" height="1" fill="#AC3232" />
<rect x="18" y="23" width="1" height="1" fill="#AC3232" />
<rect x="19" y="23" width="1" height="1" fill="#AC3232" />
<rect x="20" y="23" width="1" height="1" fill="#AC3232" />
<rect x="2" y="24" width="1" height="1" fill="#AC3232" />
<rect x="3" y="24" width="1" height="1" fill="#AC3232" />
<rect x="4" y="24" width="1" height="1" fill="#AC3232" />
<rect x="5" y="24" width="1" height="1" fill="#AC3232" />
<rect x="6" y="24" width="1" height="1" fill="#AC3232" />
<rect x="7" y="24" width="1" height="1" fill="#AC3232" />
<rect x="8" y="24" width="1" height="1" fill="#AC3232" />
<rect x="9" y="24" width="1" height="1" fill="#AC3232" />
<rect x="10" y="24" width="1" height="1" fill="#AC3232" />
<rect x="11" y="24" width="1" height="1" fill="#AC3232" />
<rect x="12" y="24" width="1" height="1" fill="#AC3232" />
<rect x="13" y="24" width="1" height="1" fill="#AC3232" />
<rect x="14" y="24" width="1" height="1" fill="#AC3232" />
<rect x="15" y="24" width="1" height="1" fill="#AC3232" />
<rect x="16" y="24" width="1" height="1" fill="#AC3232" />
<rect x="17" y="24" width="1" height="1" fill="#AC3232" />
<rect x="18" y="24" width="1" height="1" fill="#AC3232" />
<rect x="19" y="24" width="1" height="1" fill="#AC3232" />
<rect x="20" y="24" width="1" height="1" fill="#AC3232" />
</svg>